<?xml version="1.0" encoding="UTF-8" standalone="no"?>
<!-- Generator: Gravit.io -->

<svg
   style="isolation:isolate"
   viewBox="0 0 48 48"
   width="48pt"
   height="48pt"
   version="1.1"
   id="svg5"
   sodipodi:docname="Arubasign.svg"
   inkscape:version="1.4.2 (ebf0e940d0, 2025-05-08)"
   xmlns:inkscape="http://www.inkscape.org/namespaces/inkscape"
   xmlns:sodipodi="http://sodipodi.sourceforge.net/DTD/sodipodi-0.dtd"
   xmlns="http://www.w3.org/2000/svg"
   xmlns:svg="http://www.w3.org/2000/svg">
  <path
     d="m 39.175485,19.830409 q 0,1.246296 -0.164951,2.547575 -0.146623,1.30128 -0.494853,2.529248 -0.34823,1.227968 -0.916394,2.327641 -0.568164,1.081345 -1.392919,1.906099 -0.824754,0.824755 -1.924427,1.30128 -1.081345,0.458197 -2.492592,0.458197 -0.751443,0 -1.392919,-0.164951 -0.641476,-0.183279 -1.136329,-0.513181 -0.494852,-0.329902 -0.843082,-0.843082 -0.329902,-0.531509 -0.458197,-1.20964 -0.733115,0.733115 -1.429575,1.264623 -0.678131,0.513181 -1.337935,0.843083 -0.659804,0.329902 -1.30128,0.476525 -0.623148,0.146623 -1.227968,0.146623 -0.788099,0 -1.392919,-0.146623 -0.60482,-0.164951 -1.081345,-0.458197 -0.458197,-0.311574 -0.788098,-0.751443 -0.329902,-0.43987 -0.549837,-0.989706 -0.219934,-0.549836 -0.311574,-1.20964 -0.09164,-0.659804 -0.09164,-1.429575 0,-0.788099 0.128295,-1.796132 0.128295,-1.026361 0.421541,-2.107706 0.293246,-1.081345 0.806427,-2.107707 0.513181,-1.044689 1.264624,-1.851116 0.769771,-0.824754 1.81446,-1.319607 1.044689,-0.513181 2.437608,-0.513181 0.586492,0 1.118001,0.146623 0.549836,0.128296 1.044689,0.421542 0.494853,0.293246 0.95305,0.733115 0.458197,0.439869 0.934722,1.044689 l 0.311574,-1.612853 q 0.07331,-0.256591 0.329901,-0.384886 0.256591,-0.128295 0.95305,-0.128295 0.329902,0 0.549837,0.03666 0.238262,0.03666 0.366557,0.109967 0.128295,0.05498 0.164951,0.146623 0.05498,0.09164 0.01833,0.219935 l -1.631181,8.430825 q -0.293246,1.594525 0.146623,2.364296 0.439869,0.751443 1.667837,0.751443 0.751443,0 1.356263,-0.366557 0.60482,-0.384886 1.063017,-1.026361 0.458197,-0.641476 0.769771,-1.484559 0.311574,-0.86141 0.513181,-1.796132 0.201607,-0.95305 0.293246,-1.942755 0.09164,-0.989706 0.09164,-1.9061 0,-1.594526 -0.439869,-3.0241 -0.421541,-1.447903 -1.46623,-2.529248 -1.044689,-1.099673 -2.804166,-1.741149 -1.741149,-0.659803 -4.380363,-0.659803 -2.16269,0 -3.848855,0.476525 -1.686165,0.476525 -2.969117,1.301279 -1.282952,0.806427 -2.199346,1.869444 -0.916394,1.063017 -1.55787,2.272657 -0.623148,1.191312 -1.008033,2.455936 -0.384886,1.246296 -0.586492,2.41928 -0.201607,1.154657 -0.274918,2.181018 -0.05498,1.026362 -0.05498,1.741149 0,2.034395 0.458197,3.72056 0.476525,1.686165 1.631181,2.914133 1.154657,1.227968 3.097412,1.906099 1.942755,0.678132 4.893544,0.678132 1.337936,0 2.419281,-0.164951 1.081344,-0.146623 1.869443,-0.329902 0.806427,-0.164951 1.30128,-0.329902 0.494853,-0.146623 0.678131,-0.146623 0.109968,0 0.183279,0.05498 0.09164,0.07331 0.128295,0.201607 0.05498,0.146623 0.07331,0.348229 0.01833,0.219935 0.01833,0.531509 0,0.25659 -0.01833,0.421541 0,0.164951 -0.03666,0.293246 -0.03666,0.146623 -0.109967,0.25659 -0.05498,0.109968 -0.164951,0.201607 -0.109967,0.09164 -0.641476,0.274918 -0.513181,0.183279 -1.411247,0.366558 -0.879738,0.183279 -2.07105,0.311574 -1.191312,0.128295 -2.620887,0.128295 -3.427314,0 -5.809938,-0.806427 -2.364297,-0.806426 -3.867183,-2.309313 -1.484558,-1.502886 -2.144362,-3.610592 -0.659804,-2.107706 -0.659804,-4.710265 0,-0.95305 0.09164,-2.181018 0.109967,-1.246296 0.384885,-2.639215 0.293246,-1.411247 0.806427,-2.859149 0.51318,-1.466231 1.319607,-2.85915 0.824755,-1.392919 1.979411,-2.620887 1.172985,-1.246296 2.749182,-2.16269 1.594526,-0.934722 3.628921,-1.46623 2.052722,-0.5315086 4.636954,-0.5315086 3.005772,0 5.18679,0.7331156 2.199346,0.714787 3.62892,2.034394 1.429575,1.319608 2.126034,3.225707 0.69646,1.887772 0.69646,4.215413 z m -10.630171,1.191312 q -0.696459,-1.172984 -1.429575,-1.796132 -0.733115,-0.623148 -1.667837,-0.623148 -0.769771,0 -1.392919,0.384885 -0.623148,0.366558 -1.081345,0.971378 -0.458197,0.586492 -0.788099,1.337935 -0.311574,0.751443 -0.51318,1.539542 -0.201607,0.788099 -0.293246,1.539542 -0.07331,0.733116 -0.07331,1.30128 0,1.356263 0.476525,2.089378 0.494853,0.733115 1.649509,0.733115 0.439869,0 0.898066,-0.146623 0.458198,-0.164951 0.971378,-0.476525 0.513181,-0.329901 1.081345,-0.843082 0.586492,-0.531509 1.282952,-1.246296 z M 8.8245145,10.208272 Z"
     id="text1"
     style="font-size:37.5355px;line-height:0.96;font-family:Calibri;-inkscape-font-specification:'Calibri, Normal';text-align:center;letter-spacing:0px;word-spacing:0px;text-anchor:middle;fill:#e5e5e5;stroke-width:2.83465;stroke-linecap:round;stroke-linejoin:round"
     aria-label="@" />
  <defs
     id="defs5" />
  <sodipodi:namedview
     id="namedview5"
     pagecolor="#505050"
     bordercolor="#ffffff"
     borderopacity="1"
     inkscape:showpageshadow="0"
     inkscape:pageopacity="0"
     inkscape:pagecheckerboard="1"
     inkscape:deskcolor="#d1d1d1"
     inkscape:document-units="pt"
     inkscape:zoom="18.390625"
     inkscape:cx="32"
     inkscape:cy="32"
     inkscape:window-width="2560"
     inkscape:window-height="1385"
     inkscape:window-x="1050"
     inkscape:window-y="31"
     inkscape:window-maximized="1"
     inkscape:current-layer="svg5" />
  <linearGradient
     id="_lgradient_0"
     x1="0"
     y1="0.5"
     x2="1"
     y2="0.5"
     gradientTransform="matrix(22.8,0,0,12,17,18)"
     gradientUnits="userSpaceOnUse">
    <stop
       offset="0%"
       stop-opacity="1"
       style="stop-color:rgb(117,127,154)"
       id="stop1" />
    <stop
       offset="98.69565217391305%"
       stop-opacity="1"
       style="stop-color:rgb(215,221,232)"
       id="stop2" />
  </linearGradient>
  <linearGradient
     id="_lgradient_1"
     x1="-0.014458464773922156"
     y1="0.009839246119734024"
     x2="1.0164565923220248"
     y2="1.0722930524759795"
     gradientTransform="matrix(44,0,0,44,2,2)"
     gradientUnits="userSpaceOnUse">
    <stop
       offset="0%"
       stop-opacity="1"
       style="stop-color:rgb(249,212,35)"
       id="stop3" />
    <stop
       offset="51.56237565086822%"
       stop-opacity="1"
       style="stop-color:rgb(255,78,80)"
       id="stop4" />
    <stop
       offset="99.1304347826087%"
       stop-opacity="1"
       style="stop-color:rgb(138,35,135)"
       id="stop5" />
  </linearGradient>
  <path
     d="M 35,2.07 C 34.834,2.023 34.658,2 34.476,2 V 2 H 7.238 C 4.347,2 2,4.347 2,7.238 v 19.905 0 c 0,1.156 0.939,2.095 2.095,2.095 v 0 c 1.157,0 2.095,-0.939 2.095,-2.095 v 0 0 0 -17.81 C 6.19,7.599 7.599,6.19 9.333,6.19 h 25.143 v 0 c 0.182,0 0.358,-0.023 0.524,-0.07 0.166,0.047 0.342,0.07 0.524,0.07 v 0 h 3.143 c 1.734,0 3.143,1.409 3.143,3.143 v 3.143 0 c 0,1.157 0.938,2.095 2.095,2.095 v 0 c 1.156,0 2.095,-0.938 2.095,-2.095 v 0 -5.238 C 46,4.347 43.653,2 40.762,2 H 35.524 V 2 C 35.342,2 35.166,2.023 35,2.07 Z M 12.476,41.81 v 0 c 1.157,0 2.095,0.938 2.095,2.095 v 0 c 0,1.156 -0.938,2.095 -2.095,2.095 v 0 H 7.238 C 4.347,46 2,43.653 2,40.762 v -5.238 0 c 0,-1.157 0.939,-2.095 2.095,-2.095 v 0 c 1.157,0 2.095,0.938 2.095,2.095 v 0 3.143 c 0,1.734 1.409,3.143 3.143,3.143 z M 41.81,21.905 v 0 c 0,-1.157 0.938,-2.095 2.095,-2.095 v 0 c 1.156,0 2.095,0.938 2.095,2.095 v 0 18.857 C 46,43.653 43.653,46 40.762,46 H 21.905 v 0 C 20.748,46 19.81,45.061 19.81,43.905 v 0 c 0,-1.157 0.938,-2.095 2.095,-2.095 v 0 h 16.762 c 1.734,0 3.143,-1.409 3.143,-3.143 z"
     fill-rule="evenodd"
     fill="url(#_lgradient_1)"
     id="path5"
     sodipodi:nodetypes="cscsscsssscccsscscscsscsssscsscsccsssscsscsssscsscccsssscsscsssscssc" />
</svg>
