<?xml version="1.0" encoding="UTF-8" standalone="no"?>
<!-- Generator: Gravit.io -->

<svg
   style="isolation:isolate"
   viewBox="0 0 48 48"
   width="48pt"
   height="48pt"
   version="1.1"
   id="svg5"
   sodipodi:docname="PS-icon.svg"
   inkscape:version="1.4.2 (ebf0e940d0, 2025-05-08)"
   xmlns:inkscape="http://www.inkscape.org/namespaces/inkscape"
   xmlns:sodipodi="http://sodipodi.sourceforge.net/DTD/sodipodi-0.dtd"
   xmlns="http://www.w3.org/2000/svg"
   xmlns:svg="http://www.w3.org/2000/svg">
  <defs
     id="defs5" />
  <sodipodi:namedview
     id="namedview5"
     pagecolor="#505050"
     bordercolor="#ffffff"
     borderopacity="1"
     inkscape:showpageshadow="0"
     inkscape:pageopacity="0"
     inkscape:pagecheckerboard="1"
     inkscape:deskcolor="#d1d1d1"
     inkscape:document-units="pt"
     inkscape:zoom="18.390625"
     inkscape:cx="32"
     inkscape:cy="32"
     inkscape:window-width="2560"
     inkscape:window-height="1385"
     inkscape:window-x="1050"
     inkscape:window-y="31"
     inkscape:window-maximized="1"
     inkscape:current-layer="svg5" />
  <linearGradient
     id="_lgradient_0"
     x1="0"
     y1="0.5"
     x2="1"
     y2="0.5"
     gradientTransform="matrix(22.8,0,0,12,17,18)"
     gradientUnits="userSpaceOnUse">
    <stop
       offset="0%"
       stop-opacity="1"
       style="stop-color:rgb(117,127,154)"
       id="stop1" />
    <stop
       offset="98.69565217391305%"
       stop-opacity="1"
       style="stop-color:rgb(215,221,232)"
       id="stop2" />
  </linearGradient>
  <linearGradient
     id="_lgradient_1"
     x1="-0.014458464773922156"
     y1="0.009839246119734024"
     x2="1.0164565923220248"
     y2="1.0722930524759795"
     gradientTransform="matrix(44,0,0,44,2,2)"
     gradientUnits="userSpaceOnUse">
    <stop
       offset="0"
       stop-opacity="1"
       style="stop-color:#00d5ff;stop-opacity:1;"
       id="stop3" />
    <stop
       offset="1"
       stop-opacity="1"
       style="stop-color:#007f99;stop-opacity:1;"
       id="stop5" />
  </linearGradient>
  <path
     d="M 35,2.07 C 34.834,2.023 34.658,2 34.476,2 V 2 H 7.238 C 4.347,2 2,4.347 2,7.238 v 19.905 0 c 0,1.156 0.939,2.095 2.095,2.095 v 0 c 1.157,0 2.095,-0.939 2.095,-2.095 v 0 0 0 -17.81 C 6.19,7.599 7.599,6.19 9.333,6.19 h 25.143 v 0 c 0.182,0 0.358,-0.023 0.524,-0.07 0.166,0.047 0.342,0.07 0.524,0.07 v 0 h 3.143 c 1.734,0 3.143,1.409 3.143,3.143 v 3.143 0 c 0,1.157 0.938,2.095 2.095,2.095 v 0 c 1.156,0 2.095,-0.938 2.095,-2.095 v 0 -5.238 C 46,4.347 43.653,2 40.762,2 H 35.524 V 2 C 35.342,2 35.166,2.023 35,2.07 Z M 12.476,41.81 v 0 c 1.157,0 2.095,0.938 2.095,2.095 v 0 c 0,1.156 -0.938,2.095 -2.095,2.095 v 0 H 7.238 C 4.347,46 2,43.653 2,40.762 v -5.238 0 c 0,-1.157 0.939,-2.095 2.095,-2.095 v 0 c 1.157,0 2.095,0.938 2.095,2.095 v 0 3.143 c 0,1.734 1.409,3.143 3.143,3.143 z M 41.81,21.905 v 0 c 0,-1.157 0.938,-2.095 2.095,-2.095 v 0 c 1.156,0 2.095,0.938 2.095,2.095 v 0 18.857 C 46,43.653 43.653,46 40.762,46 H 21.905 v 0 C 20.748,46 19.81,45.061 19.81,43.905 v 0 c 0,-1.157 0.938,-2.095 2.095,-2.095 v 0 h 16.762 c 1.734,0 3.143,-1.409 3.143,-3.143 z"
     fill-rule="evenodd"
     fill="url(#_lgradient_1)"
     id="path5"
     sodipodi:nodetypes="cscsscsssscccsscscscsscsssscsscsccsssscsscsssscsscccsssscsscsssscssc" />
  <path
     d="m 23.071992,19.936012 q 0,1.824 -0.608,3.168 -0.608,1.344 -1.632,2.272 -0.992,0.896 -2.304,1.344 -1.312,0.448 -2.752,0.448 h -1.792 v 8.032 H 9.9839917 v -22.4 h 5.9520003 q 1.6,0 2.912,0.448 1.312,0.448 2.24,1.344 0.96,0.896 1.472,2.24 0.512,1.344 0.512,3.104 z m -4,0.064 q 0,-1.408 -0.704,-2.336 -0.704,-0.96 -2.464,-0.96 h -1.92 v 6.56 h 1.984 q 1.536,0 2.304,-0.864 0.8,-0.864 0.8,-2.4 z m 18.943974,9.152 q 0,1.408 -0.48,2.592 -0.448,1.152 -1.312,2.016 -0.864,0.832 -2.112,1.312 -1.248,0.48 -2.816,0.48 -2.272,0 -3.904,-1.024 -1.632,-1.056 -2.784,-2.496 l 2.72,-2.912 q 1.024,1.312 2.048,1.952 1.056,0.608 2.08,0.608 1.248,0 1.856,-0.64 0.64,-0.672 0.64,-1.792 0,-0.96 -0.736,-1.792 -0.736,-0.832 -2.688,-1.856 -1.248,-0.64 -2.24,-1.312 -0.992,-0.672 -1.696,-1.504 -0.672,-0.832 -1.056,-1.856 -0.352,-1.056 -0.352,-2.464 0,-1.248 0.448,-2.336 0.448,-1.12 1.248,-1.92 0.832,-0.832 1.984,-1.28 1.184,-0.48 2.592,-0.48 2.112,0 3.488,0.832 1.408,0.8 2.624,2.368 l -2.656,2.656 q -0.48,-0.544 -0.896,-0.928 -0.384,-0.384 -0.8,-0.608 -0.384,-0.256 -0.832,-0.352 -0.448,-0.096 -1.024,-0.096 -0.96,0 -1.536,0.576 -0.576,0.544 -0.576,1.376 0,0.512 0.16,0.928 0.16,0.416 0.512,0.832 0.384,0.416 0.992,0.832 0.608,0.416 1.536,0.896 1.44,0.768 2.496,1.504 1.056,0.704 1.728,1.568 0.704,0.832 1.024,1.888 0.32,1.024 0.32,2.432 z"
     id="text5"
     style="font-weight:bold;font-size:32px;line-height:0.96;font-family:Interstate-BoldCondensed;-inkscape-font-specification:'Interstate-BoldCondensed, Bold';text-align:center;letter-spacing:0px;word-spacing:0px;text-anchor:middle;fill:#e5e5e5;stroke-width:2.83465;stroke-linecap:round;stroke-linejoin:round;fill-opacity:1"
     aria-label="PS" />
</svg>
