<?xml version="1.0" encoding="UTF-8" standalone="no"?>
<!-- Generator: Gravit.io -->

<svg
   style="isolation:isolate"
   viewBox="0 0 48 48"
   width="48pt"
   height="48pt"
   version="1.1"
   id="svg9"
   sodipodi:docname="video-mp4.svg"
   inkscape:version="1.4.3 (0d15f75042, 2025-12-25)"
   xmlns:inkscape="http://www.inkscape.org/namespaces/inkscape"
   xmlns:sodipodi="http://sodipodi.sourceforge.net/DTD/sodipodi-0.dtd"
   xmlns:xlink="http://www.w3.org/1999/xlink"
   xmlns="http://www.w3.org/2000/svg"
   xmlns:svg="http://www.w3.org/2000/svg">
  <defs
     id="defs9">
    <linearGradient
       id="linearGradient9"
       inkscape:collect="always">
      <stop
         style="stop-color:#fdcb1b;stop-opacity:1;"
         offset="0"
         id="stop10" />
      <stop
         style="stop-color:#fde79e;stop-opacity:1;"
         offset="1"
         id="stop11" />
    </linearGradient>
    <linearGradient
       inkscape:collect="always"
       xlink:href="#linearGradient9"
       id="linearGradient11"
       x1="14.200892"
       y1="21.206457"
       x2="36.491708"
       y2="21.206457"
       gradientUnits="userSpaceOnUse" />
  </defs>
  <sodipodi:namedview
     id="namedview9"
     pagecolor="#505050"
     bordercolor="#ffffff"
     borderopacity="1"
     inkscape:showpageshadow="0"
     inkscape:pageopacity="0"
     inkscape:pagecheckerboard="1"
     inkscape:deskcolor="#d1d1d1"
     inkscape:document-units="pt"
     inkscape:zoom="18.390625"
     inkscape:cx="32"
     inkscape:cy="32"
     inkscape:window-width="2560"
     inkscape:window-height="1385"
     inkscape:window-x="1050"
     inkscape:window-y="31"
     inkscape:window-maximized="1"
     inkscape:current-layer="svg9" />
  <linearGradient
     id="_lgradient_12"
     x1="0.6718099850460906"
     y1="0.020570018975650584"
     x2="0.4221494918345081"
     y2="0.9601645064179158"
     gradientTransform="matrix(42.555,0,0,48,2.723,0)"
     gradientUnits="userSpaceOnUse">
    <stop
       offset="0%"
       stop-opacity="1"
       style="stop-color:rgb(26,108,255)"
       id="stop1" />
    <stop
       offset="100%"
       stop-opacity="1"
       style="stop-color:rgb(197,34,255)"
       id="stop2" />
  </linearGradient>
  <path
     d=" M 34.639 0.077 C 34.479 0.025 34.308 0 34.132 0 L 34.132 0 L 8.103 0 C 5.133 0 2.723 2.411 2.723 5.38 L 2.723 27.429 L 2.723 27.429 C 2.723 28.69 3.631 29.714 4.749 29.714 L 4.749 29.714 C 5.867 29.714 6.775 28.69 6.775 27.429 L 6.775 27.429 L 6.775 27.429 L 6.775 27.429 L 6.775 7.8 C 6.775 6.018 8.222 4.571 10.004 4.571 L 34.132 4.571 L 34.132 4.571 C 34.308 4.571 34.479 4.546 34.639 4.495 C 34.799 4.546 34.969 4.571 35.145 4.571 L 35.145 4.571 L 37.996 4.571 C 39.778 4.571 41.225 6.018 41.225 7.8 L 41.225 11.429 L 41.225 11.429 C 41.225 12.69 42.133 13.714 43.251 13.714 L 43.251 13.714 C 44.369 13.714 45.277 12.69 45.277 11.429 L 45.277 11.429 L 45.277 5.38 C 45.277 2.411 42.867 0 39.897 0 L 35.145 0 L 35.145 0 C 34.969 0 34.799 0.025 34.639 0.077 Z  M 12.855 43.429 L 12.855 43.429 C 13.973 43.429 14.881 44.453 14.881 45.714 L 14.881 45.714 C 14.881 46.976 13.973 48 12.855 48 L 12.855 48 L 8.103 48 C 5.133 48 2.723 45.589 2.723 42.62 L 2.723 36.571 L 2.723 36.571 C 2.723 35.31 3.631 34.286 4.749 34.286 L 4.749 34.286 C 5.867 34.286 6.775 35.31 6.775 36.571 L 6.775 36.571 L 6.775 40.2 C 6.775 41.982 8.222 43.429 10.004 43.429 L 12.855 43.429 L 12.855 43.429 L 12.855 43.429 Z  M 41.225 21.714 L 41.225 21.714 C 41.225 20.453 42.133 19.429 43.251 19.429 L 43.251 19.429 C 44.369 19.429 45.277 20.453 45.277 21.714 L 45.277 21.714 L 45.277 42.62 C 45.277 45.589 42.867 48 39.897 48 L 21.974 48 L 21.974 48 C 20.855 48 19.947 46.976 19.947 45.714 L 19.947 45.714 C 19.947 44.453 20.855 43.429 21.974 43.429 L 21.974 43.429 L 37.996 43.429 C 39.778 43.429 41.225 41.982 41.225 40.2 L 41.225 21.714 L 41.225 21.714 Z "
     fill-rule="evenodd"
     fill="url(#_lgradient_12)"
     id="path2" />
  <linearGradient
     id="_lgradient_13"
     x1="0"
     y1="0.5"
     x2="1.0000000000000002"
     y2="0.5"
     gradientTransform="matrix(24,0,0,13,11.877655,5.4995752)"
     gradientUnits="userSpaceOnUse">
    <stop
       offset="0%"
       stop-opacity="1"
       style="stop-color:rgb(247,242,6)"
       id="stop3" />
    <stop
       offset="98.26086956521739%"
       stop-opacity="1"
       style="stop-color:rgb(255,187,36)"
       id="stop4" />
  </linearGradient>
  <linearGradient
     id="_lgradient_14"
     x1="-0.014458464773922156"
     y1="0.009839246119734024"
     x2="1.0164565923220248"
     y2="1.0722930524759795"
     gradientTransform="matrix(28,0,0,4,10.856415,5.3152082)"
     gradientUnits="userSpaceOnUse">
    <stop
       offset="0%"
       stop-opacity="1"
       style="stop-color:rgb(249,212,35)"
       id="stop5" />
    <stop
       offset="51.56237565086822%"
       stop-opacity="1"
       style="stop-color:rgb(255,78,80)"
       id="stop6" />
    <stop
       offset="99.1304347826087%"
       stop-opacity="1"
       style="stop-color:rgb(138,35,135)"
       id="stop7" />
  </linearGradient>
  <linearGradient
     id="_lgradient_15"
     x1="0"
     y1="0.5"
     x2="1.0000000000000002"
     y2="0.5"
     gradientTransform="matrix(28,0,0,18,10,15)"
     gradientUnits="userSpaceOnUse">
    <stop
       offset="0%"
       stop-opacity="1"
       style="stop-color:rgb(59,228,234)"
       id="stop8" />
    <stop
       offset="98.26086956521739%"
       stop-opacity="1"
       style="stop-color:rgb(26,147,237)"
       id="stop9" />
  </linearGradient>
  <path
     style="baseline-shift:baseline;display:inline;overflow:visible;isolation:auto;vector-effect:none;fill:url(#linearGradient11);stroke-linecap:round;stroke-linejoin:round;enable-background:accumulate;stop-color:#000000;stop-opacity:1;opacity:1"
     d="M 14.910156,8.7460938 A 1.4174668,1.4174668 0 0 0 14.201172,9.9726563 V 32.439453 a 1.4174668,1.4174668 0 0 0 2.125,1.228516 L 35.783203,22.433594 a 1.4174668,1.4174668 0 0 0 0,-2.455078 L 16.326172,8.7460938 a 1.4174668,1.4174668 0 0 0 -1.416016,0 z m 2.125,3.6816402 15.205078,8.779297 -15.205078,8.779297 z"
     id="path9"
     transform="translate(-0.70089197,2.7935429)" />
</svg>
